<svg width="48" height="48" viewBox="0 0 48 48" fill="none" xmlns="http://www.w3.org/2000/svg">
<g clip-path="url(#clip0_25_1758)">
<path d="M18 23.54C17.5867 23.54 17.2267 23.3867 16.92 23.08C16.6133 22.7733 16.46 22.4133 16.46 22C16.46 21.5867 16.6133 21.2267 16.92 20.92C17.2267 20.6133 17.5867 20.46 18 20.46C18.4133 20.46 18.7733 20.6133 19.08 20.92C19.3867 21.2267 19.54 21.5867 19.54 22C19.54 22.4133 19.3867 22.7733 19.08 23.08C18.7733 23.3867 18.4133 23.54 18 23.54ZM30 23.54C29.5867 23.54 29.2267 23.3867 28.92 23.08C28.6133 22.7733 28.46 22.4133 28.46 22C28.46 21.5867 28.6133 21.2267 28.92 20.92C29.2267 20.6133 29.5867 20.46 30 20.46C30.4133 20.46 30.7733 20.6133 31.08 20.92C31.3867 21.2267 31.54 21.5867 31.54 22C31.54 22.4133 31.3867 22.7733 31.08 23.08C30.7733 23.3867 30.4133 23.54 30 23.54ZM11.232 42C10.336 42 9.57333 41.6853 8.944 41.056C8.31467 40.4267 8 39.6647 8 38.77V30.846C8 30.3847 8.13933 29.98 8.418 29.632C8.69533 29.2853 9.06867 29.0653 9.538 28.972H10V20C10 18.056 10.3653 16.2373 11.096 14.544C11.8267 12.8507 12.8273 11.3687 14.098 10.098C15.3687 8.82733 16.8573 7.82667 18.564 7.096C20.2707 6.36533 22.0827 6 24 6C25.944 6 27.7627 6.36533 29.456 7.096C31.1493 7.82667 32.6313 8.82733 33.902 10.098C35.1727 11.3687 36.1733 12.8507 36.904 14.544C37.6347 16.2373 38 18.056 38 20V28.974H38.424C38.8933 29.066 39.2733 29.286 39.564 29.634C39.8547 29.9807 40 30.3847 40 30.846V38.77C40 39.6633 39.6853 40.4253 39.056 41.056C38.4267 41.6853 37.6647 42 36.77 42H11.232ZM10 30.846V38.77C10 39.1287 10.1153 39.4233 10.346 39.654C10.5767 39.8847 10.872 40 11.232 40H15V30.846H10ZM17 40H23V30.846H17V40ZM12 28.846H23V8.074C20.16 8.23267 17.6167 9.42 15.37 11.636C13.1233 13.8533 12 16.6413 12 20V28.846ZM25 28.846H36V20C36 16.64 34.8773 13.852 32.632 11.636C30.384 9.42 27.84 8.23267 25 8.074V28.846ZM25 40H31V30.846H25V40ZM33 40H36.77C37.1287 40 37.4233 39.8847 37.654 39.654C37.8847 39.4233 38 39.1287 38 38.77V30.846H33V40Z" fill="#B3912E"/>
</g>
<defs>
<clipPath id="clip0_25_1758">
<rect width="48" height="48" fill="white"/>
</clipPath>
</defs>
</svg>
