<svg width="48" height="48" viewBox="0 0 48 48" fill="none" xmlns="http://www.w3.org/2000/svg">
<g clip-path="url(#clip0_25_1764)">
<path d="M18 30L12 44M30 30L36 44M24 30V44M24 30C27.3725 30.0031 30.6333 28.7912 33.1852 26.5864C35.7371 24.3815 37.4095 21.3312 37.896 17.994C38.022 17.124 38.084 16.69 37.784 16.344C37.484 15.998 37 16 36.032 16H11.968C11 16 10.516 16 10.216 16.344C9.916 16.69 9.978 17.124 10.104 17.994C10.5901 21.3314 12.2624 24.3819 14.8144 26.5869C17.3664 28.7918 20.6274 30.0035 24 30ZM31.112 12C31.3919 11.7474 31.6157 11.4389 31.7688 11.0944C31.922 10.7498 32.0011 10.377 32.0011 10C32.0011 9.62298 31.922 9.25015 31.7688 8.90564C31.6157 8.56112 31.3919 8.25259 31.112 8C30.8321 7.74741 30.6083 7.43888 30.4552 7.09436C30.302 6.74985 30.2229 6.37702 30.2229 6C30.2229 5.62298 30.302 5.25015 30.4552 4.90564C30.6083 4.56112 30.8321 4.25259 31.112 4M24 12C24.2799 11.7474 24.5037 11.4389 24.6568 11.0944C24.81 10.7498 24.8891 10.377 24.8891 10C24.8891 9.62298 24.81 9.25015 24.6568 8.90564C24.5037 8.56112 24.2799 8.25259 24 8C23.7201 7.74741 23.4963 7.43888 23.3432 7.09436C23.19 6.74985 23.1109 6.37702 23.1109 6C23.1109 5.62298 23.19 5.25015 23.3432 4.90564C23.4963 4.56112 23.7201 4.25259 24 4M16.888 12C17.1679 11.7474 17.3917 11.4389 17.5448 11.0944C17.698 10.7498 17.7771 10.377 17.7771 10C17.7771 9.62298 17.698 9.25015 17.5448 8.90564C17.3917 8.56112 17.1679 8.25259 16.888 8C16.6081 7.74741 16.3843 7.43888 16.2312 7.09436C16.078 6.74985 15.9989 6.37702 15.9989 6C15.9989 5.62298 16.078 5.25015 16.2312 4.90564C16.3843 4.56112 16.6081 4.25259 16.888 4M15 38H33M38 20H40M10 20H8" stroke="#B3912E" stroke-width="3" stroke-linecap="round" stroke-linejoin="round"/>
</g>
<defs>
<clipPath id="clip0_25_1764">
<rect width="48" height="48" fill="white"/>
</clipPath>
</defs>
</svg>
