<svg width="48" height="48" viewBox="0 0 48 48" fill="none" xmlns="http://www.w3.org/2000/svg">
<g clip-path="url(#clip0_25_1760)">
<path d="M22.6719 4.506C23.0379 4.18098 23.5104 4.00146 23.9999 4.00146C24.4893 4.00146 24.9618 4.18098 25.3279 4.506L43.3279 20.506C43.7041 20.8634 43.9267 21.3531 43.9486 21.8716C43.9705 22.3902 43.79 22.8969 43.4452 23.2848C43.1004 23.6726 42.6184 23.9113 42.1009 23.9504C41.5834 23.9894 41.0709 23.8258 40.6719 23.494L39.9999 22.9V38C39.9999 39.0609 39.5784 40.0783 38.8283 40.8284C38.0781 41.5786 37.0607 42 35.9999 42H11.9999C10.939 42 9.92157 41.5786 9.17143 40.8284C8.42128 40.0783 7.99985 39.0609 7.99985 38V22.9L7.32785 23.494C6.92877 23.8258 6.41636 23.9894 5.89885 23.9504C5.38135 23.9113 4.89929 23.6726 4.5545 23.2848C4.20971 22.8969 4.0292 22.3902 4.0511 21.8716C4.073 21.3531 4.29559 20.8634 4.67185 20.506L22.6719 4.506ZM11.9999 19.34V38H17.9999V28C17.9999 27.4696 18.2106 26.9609 18.5856 26.5858C18.9607 26.2107 19.4694 26 19.9999 26H27.9999C28.5303 26 29.039 26.2107 29.4141 26.5858C29.7891 26.9609 29.9999 27.4696 29.9999 28V38H35.9999V19.342L23.9999 8.676L11.9999 19.34ZM25.9999 38V30H21.9999V38H25.9999Z" fill="#B3912E"/>
</g>
<defs>
<clipPath id="clip0_25_1760">
<rect width="48" height="48" fill="white"/>
</clipPath>
</defs>
</svg>
