<svg width="48" height="48" viewBox="0 0 48 48" fill="none" xmlns="http://www.w3.org/2000/svg">
<g clip-path="url(#clip0_25_1762)">
<path d="M40 32.0001H44V36.0001H40C37.2 36.0001 34.4 35.2001 32 34.0001C27 36.6001 21 36.6001 16 34.0001C13.6 35.2001 10.8 36.0001 8 36.0001H4V32.0001H8C10.8 32.0001 13.6 31.0001 16 29.4001C20.8 32.8001 27.2 32.8001 32 29.4001C34.4 31.0001 37.2 32.0001 40 32.0001ZM26 21.2001C27.2 20.6001 28.6 20.0001 30 19.8001V20.4001C30.6 22.4001 30.6 24.2001 30.4 26.2001C28.6 27.2001 26.4 27.8001 24.4 27.8001C25.4 25.8001 26 23.4001 26 21.2001ZM25.8 7.20012C23 8.00012 20.6 9.40012 18.6 11.4001C17.8 9.40012 17.4 7.40012 17.4 5.40012C21.8 3.40012 26.8 3.60012 31.2 5.80012C31.8 6.00012 32.4 6.20012 32.8 6.60012C30.4 6.40012 28 6.60012 25.8 7.20012ZM13.6 26.6001C12.4 27.2001 11.2 27.6001 10 27.8001C8.6 25.2001 8 22.4001 8 19.6001C9 21.6001 10.4 23.6001 12 25.2001C12.6 25.6001 13 26.2001 13.6 26.6001ZM38 27.8001C36.8 27.6001 35.6 27.2001 34.6 26.8001C35 24.4001 34.8 22.0001 34.2 19.6001C36.4 19.8001 38.4 20.4001 40.2 21.6001C40 23.6001 39.4 25.4001 38.4 27.2001L38 27.8001ZM14.8 22.4001C12.4 20.2001 11 17.0001 10.4 13.8001L10.2 12.0001C11.2 10.4001 12.2 9.20012 13.6 8.00012C13.8 10.8001 14.8 13.4001 16.4 15.6001C17.8 17.8001 19.8 19.8001 22 21.0001C22 22.6001 21.6 24.2001 21 25.8001C18.6 25.2001 16.6 24.0001 14.8 22.4001ZM27 11.0001C30 10.2001 33.4 10.4001 36.4 11.4001L38 12.2001C38.8 13.6001 39.2 15.2001 39.6 16.8001C34.6 14.6001 28.8 15.0001 24 17.6001C22.6 17.0001 21.6 16.0001 20.6 14.8001L20.8 14.6001C22.6 13.0001 24.6 11.6001 27 11.0001ZM32 37.4001C34.4 39.0001 37.2 40.0001 40 40.0001H44V44.0001H40C37.2 44.0001 34.4 43.2001 32 42.0001C27 44.6001 21 44.6001 16 42.0001C13.6 43.2001 10.8 44.0001 8 44.0001H4V40.0001H8C10.8 40.0001 13.6 39.0001 16 37.4001C20.8 40.8001 27.2 40.8001 32 37.4001Z" fill="#B3912E"/>
<path d="M11.188 32.5399C10.2213 32.5399 9.48333 32.7352 8.974 33.1259C8.46467 33.5166 7.92867 33.8206 7.366 34.0379C7.01 34.1539 6.69333 34.1306 6.416 33.9679C6.13867 33.8026 6 33.5452 6 33.1959C6 32.9532 6.082 32.7266 6.246 32.5159C6.41 32.3052 6.66333 32.1072 7.006 31.9219C7.32733 31.7192 7.866 31.4379 8.622 31.0779C9.37667 30.7179 10.2607 30.5379 11.274 30.5379C12.8767 30.5379 14.0133 30.8712 14.684 31.5379C15.3547 32.2046 16.346 32.5379 17.658 32.5379C18.97 32.5379 19.9527 32.2046 20.606 31.5379C21.2593 30.8712 22.3993 30.5379 24.026 30.5379C25.6527 30.5379 26.8007 30.8712 27.47 31.5379C28.1393 32.2046 29.13 32.5379 30.442 32.5379C31.754 32.5379 32.7307 32.2046 33.372 31.5379C34.0133 30.8712 35.1447 30.5379 36.766 30.5379C37.686 30.5379 38.53 30.7132 39.298 31.0639C40.066 31.4146 40.6753 31.7212 41.126 31.9839C41.4207 32.1359 41.6407 32.3166 41.786 32.5259C41.9313 32.7352 42.0027 32.9586 42 33.1959C42 33.5212 41.868 33.7719 41.604 33.9479C41.34 34.1239 41.0293 34.1539 40.672 34.0379C40.136 33.8459 39.5853 33.5479 39.02 33.1439C38.4547 32.7399 37.7053 32.5379 36.772 32.5379C35.488 32.5379 34.5053 32.8712 33.824 33.5379C33.1427 34.2046 32.0027 34.5379 30.404 34.5379C28.8053 34.5379 27.67 34.2046 26.998 33.5379C26.326 32.8712 25.3353 32.5379 24.026 32.5379C22.7167 32.5379 21.728 32.8712 21.06 33.5379C20.392 34.2046 19.254 34.5379 17.646 34.5379C16.038 34.5379 14.8893 34.2046 14.2 33.5379C13.5107 32.8712 12.5067 32.5379 11.188 32.5379M11.188 24.9999C10.2293 24.9999 9.49267 25.1952 8.978 25.5859C8.46467 25.9766 7.92733 26.2812 7.366 26.4999C7.00867 26.6146 6.692 26.5906 6.416 26.4279C6.13867 26.2652 6 26.0092 6 25.6599C6 25.4159 6.082 25.1892 6.246 24.9799C6.41 24.7706 6.66333 24.5726 7.006 24.3859C7.32733 24.1832 7.86533 23.9019 8.62 23.5419C9.37467 23.1819 10.2593 23.0019 11.274 23.0019C12.8767 23.0019 14.0133 23.3352 14.684 24.0019C15.3547 24.6686 16.346 25.0019 17.658 25.0019C18.97 25.0019 19.9527 24.6686 20.606 24.0019C21.2593 23.3352 22.3993 23.0019 24.026 23.0019C25.6527 23.0019 26.8013 23.3352 27.472 24.0019C28.1427 24.6686 29.1293 25.0019 30.432 25.0019C31.7333 25.0019 32.71 24.6686 33.362 24.0019C34.014 23.3352 35.1447 23.0019 36.754 23.0019C37.7673 23.0019 38.658 23.1886 39.426 23.5619C40.194 23.9352 40.738 24.2232 41.058 24.4259C41.3833 24.5912 41.6213 24.7779 41.772 24.9859C41.924 25.1912 42 25.4159 42 25.6599C42 25.9852 41.866 26.2359 41.598 26.4119C41.33 26.5879 41.018 26.6179 40.662 26.5019C40.126 26.3099 39.5773 26.0119 39.016 25.6079C38.4547 25.2039 37.7073 25.0019 36.774 25.0019C35.4887 25.0019 34.506 25.3352 33.826 26.0019C33.146 26.6686 32.0053 27.0019 30.404 27.0019C28.8027 27.0019 27.6673 26.6686 26.998 26.0019C26.3287 25.3352 25.3387 25.0019 24.028 25.0019C22.7173 25.0019 21.732 25.3352 21.072 26.0019C20.412 26.6686 19.278 27.0019 17.67 27.0019C16.062 27.0019 14.9073 26.6686 14.206 26.0019C13.5047 25.3352 12.4987 25.0019 11.188 25.0019M11.228 17.4619C10.2947 17.4619 9.55133 17.6519 8.998 18.0319C8.446 18.4092 7.902 18.6939 7.366 18.8859C7.01 19.0019 6.69333 18.9786 6.416 18.8159C6.13867 18.6506 6 18.4052 6 18.0799C6 17.8372 6.082 17.6172 6.246 17.4199C6.41 17.2226 6.66333 17.0312 7.006 16.8459C7.32733 16.6432 7.866 16.3619 8.622 16.0019C9.37667 15.6419 10.2607 15.4619 11.274 15.4619C12.8767 15.4619 14.0133 15.7952 14.684 16.4619C15.3547 17.1286 16.346 17.4619 17.658 17.4619C18.97 17.4619 19.9527 17.1286 20.606 16.4619C21.2593 15.7952 22.3993 15.4619 24.026 15.4619C25.6527 15.4619 26.8013 15.7952 27.472 16.4619C28.1427 17.1286 29.1293 17.4619 30.432 17.4619C31.7333 17.4619 32.71 17.1286 33.362 16.4619C34.014 15.7952 35.1447 15.4619 36.754 15.4619C37.7673 15.4619 38.658 15.6486 39.426 16.0219C40.1927 16.3952 40.7367 16.6826 41.058 16.8839C41.3833 17.0506 41.6213 17.2372 41.772 17.4439C41.924 17.6506 42 17.8752 42 18.1179C42 18.4446 41.866 18.6952 41.598 18.8699C41.33 19.0446 41.018 19.0752 40.662 18.9619C40.126 18.7686 39.5773 18.4706 39.016 18.0679C38.4533 17.6639 37.7053 17.4619 36.772 17.4619C35.488 17.4619 34.5053 17.7952 33.824 18.4619C33.1427 19.1286 32.0027 19.4619 30.404 19.4619C28.8053 19.4619 27.67 19.1286 26.998 18.4619C26.326 17.7952 25.3353 17.4619 24.026 17.4619C22.7167 17.4619 21.7313 17.7952 21.07 18.4619C20.4087 19.1286 19.2753 19.4619 17.67 19.4619C16.0647 19.4619 14.916 19.1286 14.224 18.4619C13.532 17.7952 12.5347 17.4619 11.228 17.4619Z" fill="#B3912E"/>
</g>
<defs>
<clipPath id="clip0_25_1762">
<rect width="48" height="48" fill="white"/>
</clipPath>
</defs>
</svg>
