<svg width="32" height="33" viewBox="0 0 32 33" fill="none" xmlns="http://www.w3.org/2000/svg">
<path d="M16 4.52148C17.6543 4.52148 19.2959 4.50659 20.9521 4.59961C22.8707 4.69255 24.567 5.12757 25.9697 6.53027C27.3693 7.92997 27.8065 9.62934 27.8994 11.5479C27.9924 13.2012 27.9775 14.8427 27.9775 16.5C27.9775 18.1574 27.9954 19.7989 27.8994 21.4521C27.8065 23.3707 27.3724 25.067 25.9697 26.4697C24.57 27.8694 22.8707 28.3065 20.9521 28.3994C19.2989 28.4924 17.6573 28.4775 16 28.4775C14.5523 28.4775 13.1144 28.4891 11.668 28.4297L11.0479 28.3994L10.6904 28.3779C8.91815 28.2485 7.34529 27.7846 6.03027 26.4697C4.63056 25.07 4.19255 23.3707 4.09961 21.4521C4.00659 19.7989 4.02148 18.1543 4.02148 16.5C4.02148 14.8457 4.0066 13.2041 4.09961 11.5479C4.19254 9.62922 4.62754 7.93301 6.03027 6.53027C7.43001 5.13053 9.12923 4.69254 11.0479 4.59961C12.7011 4.5066 14.3427 4.52148 16 4.52148ZM12.3916 6.63965C11.0377 6.68241 9.70064 6.80344 8.90723 7.11719C8.35826 7.33739 7.95062 7.60611 7.52539 8.02832C7.10005 8.45065 6.83441 8.86134 6.61426 9.41016C6.30051 10.2036 6.17948 11.5407 6.13672 12.8945C6.09395 14.2491 6.12891 15.6258 6.12891 16.5C6.1289 17.3743 6.09393 18.7503 6.13672 20.1045C6.17949 21.4578 6.30059 22.794 6.61426 23.5889C6.83444 24.1378 7.10007 24.5464 7.52539 24.9717V24.9707C7.94777 25.3961 8.35832 25.6626 8.90723 25.8828C9.70064 26.1966 11.0377 26.3166 12.3916 26.3594C13.7461 26.4021 15.1229 26.3672 15.9971 26.3672C16.8713 26.3672 18.2469 26.4025 19.6006 26.3594C20.9535 26.3162 22.2895 26.1951 23.083 25.8799C23.632 25.6597 24.0395 25.3931 24.4648 24.9678C24.8902 24.5454 25.1558 24.1348 25.376 23.5859H25.377C25.6921 22.7925 25.8133 21.4564 25.8564 20.1035C25.8996 18.7498 25.8643 17.3742 25.8643 16.5C25.8643 15.6258 25.8992 14.2491 25.8564 12.8945C25.8137 11.5407 25.6936 10.2036 25.3799 9.41016C25.1597 8.8612 24.8931 8.45364 24.4678 8.02832C24.0455 7.60309 23.6347 7.3373 23.0859 7.11719C22.2925 6.8035 20.9563 6.68241 19.6025 6.63965C18.248 6.59686 16.8714 6.63183 15.9971 6.63184C15.1229 6.63184 13.7461 6.59688 12.3916 6.63965ZM15.9971 10.3633C19.3926 10.3634 22.1328 13.1045 22.1328 16.5C22.1327 19.8954 19.3925 22.6356 15.9971 22.6357C12.6015 22.6357 9.86047 19.8955 9.86035 16.5C9.86035 13.1044 12.6014 10.3633 15.9971 10.3633ZM15.9971 12.4775C13.782 12.4775 11.9736 14.2849 11.9736 16.5C11.9738 18.715 13.7821 20.5225 15.9971 20.5225C18.2119 20.5223 20.0194 18.7149 20.0195 16.5C20.0195 14.285 18.212 12.4777 15.9971 12.4775ZM22.4062 8.67676C22.5922 8.67656 22.7764 8.71314 22.9482 8.78418C23.1201 8.85525 23.2766 8.95933 23.4082 9.09082C23.5398 9.22241 23.6447 9.37882 23.7158 9.55078C23.7869 9.72279 23.8235 9.90762 23.8232 10.0938C23.8231 10.8805 23.19 11.5106 22.4062 11.5107C21.6224 11.5107 20.9894 10.8776 20.9893 10.0938C20.9893 9.30984 21.6223 8.67676 22.4062 8.67676Z" fill="#FAFAFA" stroke="#FAFAFA" stroke-width="0.0420605"/>
</svg>
