<svg width="32" height="33" viewBox="0 0 32 33" fill="none" xmlns="http://www.w3.org/2000/svg">
<path d="M15.9967 6.5C10.5518 6.5 6.0049 11.0551 6.0049 16.4951C6.00699 18.4643 6.58903 20.3893 7.67837 22.0298L6 26.4951L11.6147 25.4796C12.9802 26.1428 14.4787 26.4867 15.9967 26.4853C21.4465 26.4886 26 21.94 26 16.4967C26 11.06 21.4449 6.49674 15.9967 6.5Z" stroke="#FAFAFA" stroke-width="2.12566" stroke-linecap="round" stroke-linejoin="round"/>
<path d="M16.5468 20.9005C17.9003 21.7674 19.3093 21.1356 20.2921 20.4025C20.9697 19.8964 20.9485 18.9217 20.3689 18.3046L19.226 17.0882C18.7934 17.5209 17.9476 17.7364 17.3615 17.5568C16.0995 17.1731 15.5705 16.5168 15.1411 15.8474C14.6497 15.0801 15.2064 13.9339 15.6391 13.5013L14.3656 12.3388C13.8285 11.8491 13.0138 11.7674 12.5452 12.3225C11.6178 13.4213 11.0431 15.0915 11.724 16.1544C12.9485 18.0629 14.6382 19.676 16.5468 20.9005Z" stroke="#FAFAFA" stroke-width="2.12566" stroke-linecap="round" stroke-linejoin="round"/>
</svg>
