<svg width="32" height="33" viewBox="0 0 32 33" fill="none" xmlns="http://www.w3.org/2000/svg">
<path d="M27.6921 22.9334V10.9334H9.02539V22.9334H27.6921ZM27.6921 4.26676C28.3993 4.26676 29.0776 4.54772 29.5777 5.04781C30.0778 5.54791 30.3587 6.22619 30.3587 6.93343V22.9334C30.3587 23.6407 30.0778 24.319 29.5777 24.819C29.0776 25.3191 28.3993 25.6001 27.6921 25.6001H9.02539C8.31815 25.6001 7.63987 25.3191 7.13977 24.819C6.63968 24.319 6.35872 23.6407 6.35872 22.9334V6.93343C6.35872 6.22619 6.63968 5.54791 7.13977 5.04781C7.63987 4.54772 8.31815 4.26676 9.02539 4.26676H10.3587V1.6001H13.0254V4.26676H23.6921V1.6001H26.3587V4.26676H27.6921ZM23.0654 15.0134L17.1454 20.9334L13.5721 17.3601L14.9854 15.9468L17.1454 18.1068L21.6521 13.6001L23.0654 15.0134ZM3.69206 28.2668H22.3587V30.9334H3.69206C2.98481 30.9334 2.30654 30.6525 1.80644 30.1524C1.30634 29.6523 1.02539 28.974 1.02539 28.2668V12.2668H3.69206V28.2668Z" fill="white"/>
</svg>
