<svg width="32" height="32" viewBox="0 0 32 32" fill="none" xmlns="http://www.w3.org/2000/svg">
<path d="M15.3931 13.64C15.5044 13.6767 15.6184 13.7037 15.7351 13.721C15.9204 13.7677 16.1081 13.801 16.2981 13.821C16.3885 14.2564 16.6231 14.6486 16.9638 14.9343C17.3046 15.22 17.7316 15.3825 18.1761 15.3957C18.6205 15.4089 19.0565 15.2719 19.4136 15.0069C19.7706 14.7419 20.028 14.3643 20.1441 13.935C20.3621 13.149 20.4741 12.337 20.4771 11.521C20.9546 10.8739 21.3472 10.1681 21.6451 9.42104L21.6581 9.39104L21.7651 9.13104L21.9021 8.78504C22.0484 8.40599 22.1868 8.02391 22.3171 7.63904L22.3441 7.55904L22.3541 7.52704C22.4221 7.32704 22.4901 7.10504 22.5541 6.88104C22.5921 6.75171 22.6284 6.62104 22.6631 6.48904C22.8275 5.90372 22.9353 5.30397 22.9851 4.69804V4.66804C23.0024 4.17208 22.8347 3.68739 22.5146 3.30815C22.1945 2.92892 21.7449 2.68224 21.2531 2.61604C20.8641 2.56612 20.469 2.63405 20.1191 2.81104C19.8117 2.96668 19.5498 3.19907 19.3586 3.4857C19.1675 3.77233 19.0536 4.10347 19.0281 4.44704V4.45704C18.9502 5.06853 18.806 5.66973 18.5981 6.25004C18.4981 6.55004 18.3981 6.83504 18.2981 7.09004C18.0967 6.98671 17.8887 6.90004 17.6741 6.83004L17.6551 6.82104C16.7546 6.53476 15.7776 6.6148 14.9358 7.04383C14.0939 7.47286 13.455 8.21631 13.1575 9.11311C12.8599 10.0099 12.9278 10.9878 13.3462 11.835C13.7647 12.6821 14.5001 13.3303 15.3931 13.639V13.64ZM19.1791 13.671C19.1259 13.8685 19.0121 14.0443 18.8538 14.1737C18.6955 14.3031 18.5006 14.3797 18.2965 14.3926C18.0925 14.4055 17.8895 14.3541 17.7161 14.2457C17.5427 14.1372 17.4077 13.9772 17.3301 13.788C17.5201 13.754 17.7064 13.706 17.8891 13.644C18.4395 13.4491 18.9457 13.1466 19.3781 12.754C19.3281 13.0634 19.2617 13.369 19.1791 13.671ZM14.0691 9.41104C14.176 9.08859 14.3454 8.79037 14.5677 8.53342C14.7899 8.27647 15.0606 8.06583 15.3643 7.91353C15.6679 7.76122 15.9987 7.67025 16.3375 7.6458C16.6763 7.62136 17.0167 7.66391 17.3391 7.77104L17.3691 7.78104C17.5644 7.84371 17.7514 7.92504 17.9301 8.02504L17.9091 8.07404V8.08604C17.6859 8.60663 17.3822 9.08886 17.0091 9.51504L16.9931 9.53104L16.9681 9.56004C16.9361 9.59759 16.9027 9.63395 16.8681 9.66904L16.7681 9.63104L16.7381 9.62104C16.5789 9.56842 16.4054 9.58097 16.2555 9.65593C16.1056 9.73088 15.9915 9.86216 15.9381 10.021C15.9078 10.0984 15.8948 10.1814 15.9 10.2644C15.9051 10.3473 15.9284 10.4281 15.9681 10.501C16.0281 10.629 16.1301 10.732 16.2571 10.793C16.2904 10.801 16.3237 10.8104 16.3571 10.821C16.4477 10.8537 16.5407 10.874 16.6361 10.882C16.7883 10.891 16.9399 10.8563 17.0731 10.782C17.1431 10.746 17.2097 10.7047 17.2731 10.658C17.4417 10.526 17.5944 10.3777 17.7311 10.213L17.7411 10.203C18.1882 9.69987 18.5518 9.12829 18.8181 8.51004C18.8491 8.43906 18.8784 8.36738 18.9061 8.29504V8.28004L18.9161 8.25604C18.9717 8.12572 19.0257 7.99471 19.0781 7.86304L19.1121 7.77604L19.1461 7.68804C19.5701 6.67304 19.8661 5.60904 20.0291 4.52104C20.0384 4.39971 20.0684 4.28337 20.1191 4.17204C20.177 4.04824 20.2597 3.93763 20.3621 3.84704C20.5559 3.67472 20.8101 3.58626 21.0691 3.60104C21.2841 3.61304 21.4891 3.69704 21.6491 3.84104C21.7609 3.93913 21.8495 4.06095 21.9083 4.19762C21.9672 4.33429 21.9947 4.48236 21.9891 4.63104C21.9784 4.79104 21.9601 4.95771 21.9341 5.13104C21.8541 5.62437 21.7421 6.11004 21.5981 6.58804L21.5561 6.72804C21.374 7.3238 21.1689 7.91224 20.9411 8.49204L20.9081 8.57604C20.8514 8.7196 20.7934 8.8626 20.7341 9.00504L20.7191 9.04104L20.6331 9.24904C20.2817 10.065 19.8046 10.8209 19.2191 11.489C18.7505 12.0849 18.112 12.5243 17.3881 12.749C17.0484 12.8408 16.6941 12.8652 16.3451 12.821C16.2026 12.8032 16.0615 12.7751 15.9231 12.737C15.8503 12.7299 15.7785 12.7148 15.7091 12.692C15.3859 12.5844 15.0871 12.4141 14.8298 12.1909C14.5724 11.9677 14.3616 11.696 14.2093 11.3913C14.057 11.0866 13.9662 10.7549 13.9422 10.4151C13.9181 10.0753 13.9612 9.73415 14.0691 9.41104ZM12.0821 4.57904C11.9774 4.65323 11.8589 4.70569 11.7336 4.73331C11.6083 4.76092 11.4787 4.76314 11.3526 4.73984C11.2264 4.71653 11.1062 4.66816 10.999 4.5976C10.8918 4.52704 10.7999 4.43571 10.7287 4.32901C10.6574 4.22232 10.6082 4.10242 10.5841 3.9764C10.56 3.85039 10.5613 3.72081 10.5881 3.59533C10.6149 3.46985 10.6666 3.35102 10.7401 3.24585C10.8136 3.14069 10.9074 3.05132 11.0161 2.98304C11.2277 2.84999 11.4829 2.80477 11.7274 2.85698C11.9719 2.90918 12.1864 3.05471 12.3253 3.2626C12.4641 3.4705 12.5164 3.72436 12.471 3.97021C12.4256 4.21605 12.286 4.43448 12.0821 4.57904ZM23.9901 23.425C24.0958 23.35 24.2155 23.2968 24.3421 23.2688C24.4687 23.2408 24.5997 23.2384 24.7272 23.2619C24.8547 23.2854 24.9763 23.3341 25.0846 23.4054C25.193 23.4766 25.286 23.5689 25.358 23.6767C25.4301 23.7845 25.4799 23.9056 25.5043 24.033C25.5288 24.1603 25.5274 24.2913 25.5004 24.4181C25.4734 24.5449 25.4212 24.6651 25.3469 24.7714C25.2727 24.8777 25.1778 24.968 25.0681 25.037C24.8543 25.1715 24.5965 25.2172 24.3495 25.1646C24.1025 25.1119 23.8858 24.965 23.7454 24.7551C23.605 24.5452 23.552 24.2888 23.5977 24.0404C23.6434 23.792 23.7842 23.5713 23.9901 23.425ZM24.9891 9.51104C25.2967 9.51104 25.5918 9.38883 25.8093 9.17128C26.0269 8.95374 26.1491 8.65869 26.1491 8.35104C26.1491 8.04339 26.0269 7.74834 25.8093 7.5308C25.5918 7.31325 25.2967 7.19104 24.9891 7.19104C24.6814 7.19104 24.3864 7.31325 24.1688 7.5308C23.9513 7.74834 23.8291 8.04339 23.8291 8.35104C23.8291 8.65869 23.9513 8.95374 24.1688 9.17128C24.3864 9.38883 24.6814 9.51104 24.9891 9.51104ZM6.67307 9.31504C6.5465 9.40348 6.40356 9.46576 6.25261 9.49824C6.10166 9.53071 5.94575 9.53272 5.79402 9.50416C5.64228 9.47559 5.49777 9.41702 5.36897 9.33188C5.24017 9.24674 5.12965 9.13674 5.04392 9.00833C4.95818 8.87992 4.89894 8.73569 4.86967 8.58409C4.8404 8.43249 4.84169 8.27657 4.87346 8.12547C4.90523 7.97437 4.96685 7.83114 5.05471 7.70417C5.14256 7.5772 5.25487 7.46904 5.38507 7.38604C5.641 7.21524 5.9543 7.15311 6.25605 7.21331C6.55779 7.2735 6.82327 7.45111 6.99407 7.70704C7.16487 7.96297 7.227 8.27628 7.1668 8.57802C7.1066 8.87977 6.929 9.14524 6.67307 9.31604" fill="white"/>
<path d="M29.4178 15.4891C29.2934 15.5469 29.1587 15.5795 29.0215 15.585C28.8844 15.5904 28.7475 15.5687 28.6188 15.5211C27.5583 15.1247 26.414 15.0056 25.2945 15.1752C24.1751 15.3448 23.1174 15.7974 22.2218 16.4901C24.5488 16.5501 26.8238 17.1841 28.8448 18.3391C29.339 18.618 29.7029 19.081 29.8571 19.6272C30.0113 20.1733 29.9433 20.7582 29.668 21.2544C29.3927 21.7507 28.9324 22.1179 28.3875 22.2761C27.8425 22.4344 27.2571 22.3707 26.7588 22.0991C25.5625 21.4046 24.2321 20.9729 22.8559 20.8328C21.4798 20.6926 20.0896 20.8471 18.7778 21.2861C19.1128 21.9291 19.3638 22.6131 19.5228 23.3211C19.5798 23.5321 19.6078 23.7511 19.6068 23.9691C19.641 24.2455 19.6158 24.5259 19.533 24.7918C19.4503 25.0577 19.3118 25.3029 19.1268 25.5111C19.0468 25.5911 18.9585 25.6608 18.8618 25.7201C18.5664 26.0039 18.2032 26.2074 17.8068 26.3111L5.06884 29.7211C4.65814 29.8307 4.22582 29.8302 3.81539 29.7196C3.40495 29.609 3.03088 29.3923 2.73082 29.0912C2.43076 28.7901 2.21529 28.4153 2.10611 28.0045C1.99692 27.5937 1.99786 27.1614 2.10884 26.7511L5.51884 14.0111C5.62356 13.6103 5.83027 13.2434 6.11884 12.9461C6.17617 12.8534 6.24284 12.7684 6.31884 12.6911C6.52065 12.511 6.75791 12.375 7.01537 12.292C7.27283 12.209 7.54481 12.1808 7.81384 12.2091C8.05684 12.2031 8.29984 12.2341 8.53384 12.3011C9.15501 12.4409 9.75728 12.6545 10.3278 12.9371C10.6078 11.3171 10.3378 9.6491 9.55884 8.2011C9.41164 7.9266 9.37952 7.60487 9.46954 7.30668C9.55955 7.0085 9.76434 6.75829 10.0388 6.6111C10.3133 6.4639 10.6351 6.43178 10.9332 6.5218C11.2314 6.61181 11.4816 6.8166 11.6288 7.0911C12.7979 9.27001 13.0925 11.8126 12.4528 14.2011C13.2292 14.752 13.9673 15.3551 14.6618 16.0061C14.8725 15.7925 15.1583 15.6697 15.4582 15.6639C15.7582 15.6581 16.0485 15.7697 16.2673 15.9749C16.4861 16.1801 16.6161 16.4628 16.6294 16.7625C16.6428 17.0621 16.5385 17.3552 16.3388 17.5791C16.4815 17.5224 16.6262 17.4681 16.7728 17.4161C18.0908 16.9425 19.4652 16.6439 20.8608 16.5281C20.7379 16.4294 20.6388 16.3044 20.5708 16.1622C20.5028 16.02 20.4676 15.8643 20.468 15.7066C20.4684 15.549 20.5043 15.3935 20.573 15.2516C20.6417 15.1097 20.7414 14.9852 20.8648 14.8871C22.0451 13.9536 23.4465 13.3407 24.9332 13.1077C26.4199 12.8747 27.9415 13.0295 29.3508 13.5571C29.544 13.6303 29.7112 13.7589 29.8315 13.9268C29.9518 14.0947 30.0198 14.2944 30.0269 14.5008C30.0341 14.7072 29.9801 14.9112 29.8717 15.087C29.7634 15.2628 29.6055 15.4027 29.4178 15.4891ZM11.5298 22.8461L11.3488 22.6911L11.5148 22.8331L11.5298 22.8461ZM4.07584 28.7541C4.31584 28.8191 4.56984 28.8191 4.81084 28.7551L5.38884 28.6041C4.57152 28.0114 3.83732 27.3118 3.20584 26.5241L3.07484 27.0141C2.97699 27.3776 3.02747 27.765 3.21517 28.0913C3.40287 28.4176 3.71244 28.656 4.07584 28.7541ZM5.67184 26.2471C6.38377 26.9032 7.18465 27.4556 8.05084 27.8881L10.8488 27.1391C9.75996 26.4958 8.74402 25.7364 7.81884 24.8741C6.60894 23.7314 5.55276 22.4362 4.67684 21.0211L3.88284 23.9901C4.36942 24.8233 4.97176 25.5832 5.67184 26.2471ZM9.18884 23.4121C10.5234 24.6443 12.0545 25.6447 13.7188 26.3721L16.2098 25.7041C13.9317 24.8037 11.8795 23.4132 10.1988 21.6311C9.60971 21.0463 9.05416 20.4287 8.53483 19.7811C8.30483 19.4958 8.09017 19.2114 7.89084 18.9281C7.14337 17.9172 6.54649 16.8033 6.11884 15.6211L5.41584 18.2821C6.37095 20.1952 7.64712 21.9304 9.18884 23.4121ZM28.7228 19.5021C28.6238 19.3841 28.5029 19.2864 28.3668 19.2141H28.3618C26.6671 18.2447 24.7777 17.6648 22.831 17.5166C20.8842 17.3683 18.9288 17.6555 17.1068 18.3571L16.9148 18.4271L16.9238 18.4371C15.0289 19.1951 13.3372 20.3854 11.9838 21.9131C12.2428 22.1401 12.4938 22.3481 12.7428 22.5481C13.0918 22.8281 13.4428 23.0871 13.8428 23.3481C14.9341 22.0922 16.3173 21.1238 17.8708 20.5281C19.3856 19.9339 21.0145 19.6877 22.6372 19.8076C24.2599 19.9276 25.8349 20.4106 27.2458 21.2211C27.4786 21.3607 27.7532 21.4135 28.0211 21.3701C28.2891 21.3268 28.533 21.19 28.7099 20.9841C28.8867 20.7782 28.985 20.5164 28.9873 20.245C28.9897 19.9736 28.896 19.7111 28.7228 19.5021Z" fill="white"/>
</svg>
