<svg width="32" height="33" viewBox="0 0 32 33" fill="none" xmlns="http://www.w3.org/2000/svg">
<path d="M13.0546 23.4H10.3346V12.24C9.40128 12.8266 8.49461 13.16 7.41461 13.36L6.97461 11.1866C7.64128 11 8.30794 10.7866 8.97461 10.52L9.90794 10.12L10.8679 9.67995L11.8546 9.19995H13.0546V23.4ZM18.8013 21.48C19.5079 21.48 20.1079 21.4 20.5879 21.24C21.0813 21.08 21.4413 20.8133 21.6813 20.4533C21.9479 20.0933 22.0679 19.6133 22.0679 19C22.0679 18.72 22.0279 18.4666 21.9346 18.24C21.8533 18.0098 21.7158 17.8035 21.5346 17.64C21.3247 17.4421 21.0746 17.292 20.8013 17.2C20.4946 17.0666 20.1079 16.96 19.6413 16.88C19.1746 16.7866 18.6279 16.7066 17.9879 16.6533C17.2546 16.6 16.5213 16.56 15.7879 16.56L16.4546 9.19995H24.5879L24.1879 11.4H18.5346L18.2279 14.6266C18.7613 14.6533 19.2546 14.7066 19.7079 14.76C20.5213 14.8533 21.3346 15.0266 22.1213 15.2666C22.7879 15.4533 23.3079 15.7333 23.7079 16.08C24.1079 16.4133 24.3879 16.8133 24.5613 17.3066C24.7479 17.7733 24.8413 18.3066 24.8413 18.9066C24.8653 19.7848 24.6337 20.651 24.1746 21.4C23.6937 22.1404 22.9949 22.7134 22.1746 23.04C21.3079 23.4133 20.1879 23.6 18.8413 23.6C17.7879 23.5866 16.7479 23.44 15.7213 23.2L15.4546 21L16.6546 21.2666C17.3613 21.3866 18.0813 21.4533 18.8013 21.48Z" fill="white"/>
</svg>
