<svg width="32" height="33" viewBox="0 0 32 33" fill="none" xmlns="http://www.w3.org/2000/svg">
<path d="M30.4563 30.2625H29.9873V22.7575C30.3528 22.775 30.7088 22.572 30.8568 22.2205C30.9011 22.1134 30.9237 21.9987 30.9234 21.8829C30.923 21.767 30.8998 21.6524 30.8549 21.5456C30.81 21.4389 30.7445 21.342 30.662 21.2607C30.5795 21.1794 30.4817 21.1153 30.3743 21.072L22.4873 17.8505V14.6575L22.6613 14.728C23.1143 14.9115 23.6393 14.699 23.8258 14.256C24.0138 13.8125 23.7963 13.299 23.3443 13.116L16.7063 10.3545V5.10645H19.0503V3.54395H16.7063V1.19995H15.1438V3.54395H12.7998V5.10645H15.1438V10.354L8.50581 13.1155C8.0538 13.2985 7.83631 13.8125 8.0243 14.2555C8.2108 14.699 8.7358 14.9115 9.1878 14.7275L9.3628 14.6565V17.85L1.4743 21.072C1.36697 21.1154 1.2693 21.1796 1.18692 21.2609C1.10453 21.3423 1.03907 21.4391 0.99431 21.5459C0.949546 21.6527 0.926367 21.7672 0.926109 21.883C0.92585 21.9988 0.948518 22.1135 0.992805 22.2205C1.1398 22.572 1.4968 22.7755 1.8623 22.7575V30.2625H1.3938C1.1353 30.2625 0.924805 30.4735 0.924805 30.7315C0.924805 30.9895 1.1353 31.2 1.3938 31.2H30.4563C30.7133 31.2 30.9248 30.989 30.9248 30.7315C30.9248 30.474 30.7133 30.2625 30.4563 30.2625ZM9.3623 30.2625H2.7998V22.433L9.3623 19.7525V30.2625ZM15.4563 29.4815H14.0498V28.075H15.4563V29.4815ZM15.4563 27.45H14.0498V26.0435C14.0498 25.1725 14.6493 24.4445 15.4563 24.235V27.45ZM17.7998 29.4815H16.3933V28.075H17.7998V29.4815ZM17.7998 27.45H16.3933V24.2355C17.1993 24.445 17.7998 25.173 17.7998 26.0435V27.45ZM21.5498 30.2625H18.7373V26.0435C18.7373 25.2975 18.441 24.5822 17.9135 24.0547C17.3861 23.5273 16.6707 23.231 15.9248 23.231C15.1789 23.231 14.4635 23.5273 13.9361 24.0547C13.4086 24.5822 13.1123 25.2975 13.1123 26.0435V30.2625H10.2998V14.2765L15.9248 11.995L21.5498 14.277V30.2625ZM29.0498 30.2625H22.4873V19.752L29.0498 22.4325V30.2625Z" fill="white"/>
<path d="M15.522 17.6989C15.6815 17.9154 15.7805 17.8744 15.741 17.6084L15.3795 15.1789C15.3712 15.117 15.3499 15.0575 15.3171 15.0043C15.2843 14.9511 15.2406 14.9055 15.189 14.8703C15.1373 14.8351 15.0788 14.8112 15.0173 14.8001C14.9558 14.789 14.8927 14.791 14.832 14.8059C14.832 14.8059 14.7675 14.8209 14.503 14.9299C14.2385 15.0399 14.1835 15.0749 14.1835 15.0749C14.13 15.1073 14.0839 15.1505 14.0482 15.2018C14.0125 15.2532 13.9881 15.3115 13.9764 15.3729C13.9648 15.4343 13.9662 15.4975 13.9806 15.5583C13.995 15.6191 14.022 15.6763 14.06 15.7259L15.522 17.6989ZM12.637 17.9234L15.065 18.2844C15.33 18.3244 15.3715 18.2259 15.1545 18.0654L13.1835 16.6039C13.1352 16.5659 13.0791 16.5391 13.0192 16.5254C12.9594 16.5117 12.8972 16.5115 12.8372 16.5247C12.7772 16.538 12.7209 16.5644 12.6724 16.602C12.6238 16.6397 12.5842 16.6876 12.5565 16.7424L12.292 17.3819C12.2728 17.4403 12.2669 17.5022 12.2745 17.5631C12.2822 17.6241 12.3033 17.6826 12.3363 17.7344C12.3693 17.7862 12.4134 17.83 12.4654 17.8627C12.5174 17.8954 12.576 17.9161 12.637 17.9234ZM15.0645 18.8029L12.6355 19.1644C12.5736 19.1728 12.5141 19.1941 12.461 19.227C12.4079 19.2598 12.3623 19.3035 12.3271 19.3551C12.292 19.4068 12.2681 19.4652 12.2571 19.5267C12.246 19.5882 12.248 19.6513 12.263 19.7119C12.263 19.7119 12.2775 19.7764 12.3865 20.0409C12.4965 20.3049 12.5315 20.3604 12.5315 20.3604C12.5638 20.414 12.6071 20.46 12.6584 20.4957C12.7097 20.5314 12.768 20.5559 12.8294 20.5675C12.8908 20.5792 12.954 20.5777 13.0149 20.5633C13.0757 20.5489 13.1328 20.5219 13.1825 20.4839L15.155 19.0219C15.372 18.8619 15.3305 18.7629 15.0645 18.8029ZM15.522 19.3879L14.061 21.3599C14.0229 21.4081 13.996 21.4641 13.9822 21.524C13.9684 21.5838 13.9681 21.646 13.9813 21.7059C13.9945 21.7659 14.0209 21.8222 14.0585 21.8707C14.0962 21.9192 14.1442 21.9588 14.199 21.9864L14.8385 22.2514C14.8968 22.2706 14.9586 22.2766 15.0195 22.2689C15.0804 22.2613 15.1388 22.2402 15.1906 22.2071C15.2423 22.1741 15.286 22.13 15.3186 22.078C15.3512 22.026 15.3718 21.9674 15.379 21.9064L15.7405 19.4784C15.7805 19.2129 15.682 19.1714 15.522 19.3879ZM16.6205 21.9084C16.6289 21.9703 16.6502 22.0298 16.683 22.0829C16.7159 22.136 16.7595 22.1817 16.8112 22.2168C16.8628 22.2519 16.9213 22.2758 16.9827 22.2869C17.0442 22.2979 17.1073 22.2959 17.168 22.2809C17.168 22.2809 17.2325 22.2664 17.497 22.1574C17.7605 22.0474 17.8165 22.0124 17.8165 22.0124C17.87 21.9801 17.9161 21.9369 17.9518 21.8855C17.9874 21.8342 18.0119 21.7759 18.0236 21.7145C18.0352 21.6531 18.0338 21.5899 18.0194 21.5291C18.005 21.4682 17.9779 21.4111 17.94 21.3614L16.478 19.3879C16.318 19.1714 16.2185 19.2129 16.259 19.4789L16.6205 21.9084ZM19.363 19.1639L16.935 18.8029C16.67 18.7629 16.6285 18.8614 16.8445 19.0219L18.8165 20.4829C18.8646 20.5211 18.9206 20.548 18.9804 20.5618C19.0402 20.5755 19.1023 20.5758 19.1623 20.5626C19.2222 20.5494 19.2784 20.523 19.3269 20.4854C19.3754 20.4477 19.4149 20.3998 19.4425 20.3449L19.708 19.7054C19.7271 19.6471 19.7331 19.5852 19.7255 19.5243C19.7178 19.4633 19.6967 19.4048 19.6637 19.353C19.6307 19.3012 19.5866 19.2574 19.5346 19.2247C19.4826 19.192 19.424 19.1712 19.363 19.1639ZM16.9345 18.2844L19.3645 17.9229C19.4264 17.9146 19.4859 17.8933 19.5391 17.8604C19.5923 17.8275 19.6379 17.7838 19.6731 17.7321C19.7082 17.6804 19.7321 17.6219 19.7431 17.5603C19.7541 17.4988 19.752 17.4356 19.737 17.3749C19.737 17.3749 19.7225 17.3109 19.6135 17.0464C19.5035 16.7824 19.4685 16.7269 19.4685 16.7269C19.4362 16.6734 19.3929 16.6273 19.3416 16.5917C19.2903 16.556 19.232 16.5315 19.1706 16.5199C19.1091 16.5082 19.046 16.5096 18.9851 16.524C18.9243 16.5384 18.8672 16.5655 18.8175 16.6034L16.844 18.0654C16.628 18.2254 16.6695 18.3244 16.9345 18.2844ZM16.478 17.6989L17.939 15.7274C17.9771 15.6793 18.004 15.6233 18.0178 15.5634C18.0316 15.5036 18.0319 15.4414 18.0187 15.3814C18.0055 15.3215 17.9791 15.2652 17.9414 15.2167C17.9038 15.1682 17.8558 15.1286 17.801 15.1009L17.1615 14.8359C17.1031 14.8168 17.0412 14.8108 16.9803 14.8185C16.9194 14.8261 16.8609 14.8472 16.8091 14.8802C16.7573 14.9132 16.7134 14.9573 16.6807 15.0093C16.648 15.0613 16.6273 15.12 16.62 15.1809L16.2595 17.6084C16.219 17.8744 16.318 17.9159 16.478 17.6989ZM6.32649 25.9844C6.42599 26.1199 6.48749 26.0944 6.46249 25.9274L6.23649 24.4094C6.23131 24.3707 6.21802 24.3335 6.19748 24.3002C6.17695 24.267 6.14963 24.2384 6.11731 24.2164C6.08498 24.1944 6.04839 24.1795 6.00991 24.1726C5.97143 24.1657 5.93193 24.167 5.89399 24.1764C5.89399 24.1764 5.85449 24.1859 5.68899 24.2534C5.62089 24.2799 5.55429 24.3102 5.48949 24.3439C5.45596 24.364 5.42707 24.391 5.40472 24.4231C5.38238 24.4551 5.36709 24.4916 5.35986 24.53C5.35263 24.5684 5.35363 24.6079 5.36279 24.6459C5.37194 24.6839 5.38906 24.7195 5.41299 24.7504L6.32649 25.9844ZM4.52299 26.1244L6.03999 26.3504C6.20749 26.3759 6.23249 26.3139 6.09749 26.2139L4.86399 25.3009C4.8339 25.277 4.79884 25.2601 4.76138 25.2515C4.72392 25.2429 4.68501 25.2427 4.64749 25.2511C4.60996 25.2594 4.57478 25.276 4.5445 25.2997C4.51422 25.3234 4.48962 25.3535 4.47249 25.3879L4.30649 25.7869C4.29479 25.8234 4.29131 25.862 4.29628 25.9C4.30125 25.938 4.31455 25.9744 4.33524 26.0067C4.35592 26.0389 4.38348 26.0662 4.41594 26.0866C4.4484 26.1069 4.48495 26.1199 4.52299 26.1244ZM4.36599 27.4469C4.43499 27.6129 4.45699 27.6474 4.45699 27.6474C4.47708 27.681 4.50405 27.7099 4.53612 27.7322C4.56819 27.7546 4.60463 27.7698 4.64304 27.7771C4.68145 27.7843 4.72096 27.7833 4.75896 27.7741C4.79696 27.765 4.83259 27.7479 4.86349 27.7239L6.09799 26.8104C6.23299 26.7109 6.20699 26.6489 6.04049 26.6739L4.52199 26.8999C4.48328 26.9053 4.44613 26.9188 4.41293 26.9394C4.37973 26.96 4.35121 26.9874 4.32922 27.0197C4.30722 27.052 4.29224 27.0886 4.28522 27.127C4.27821 27.1655 4.27932 27.205 4.28849 27.2429C4.28849 27.2429 4.29799 27.2824 4.36599 27.4469ZM6.32649 27.0399L5.41299 28.2734C5.38898 28.3035 5.37202 28.3385 5.36333 28.3759C5.35465 28.4134 5.35448 28.4523 5.36283 28.4898C5.37118 28.5273 5.38783 28.5625 5.41157 28.5927C5.43531 28.6229 5.46552 28.6474 5.49999 28.6644L5.89899 28.8299C6.06099 28.8774 6.21199 28.7799 6.23699 28.6144L6.46299 27.0969C6.48799 26.9299 6.42649 26.9044 6.32649 27.0399ZM7.01299 28.6149C7.03799 28.7809 7.19149 28.8864 7.35549 28.8479C7.35549 28.8479 7.39499 28.8384 7.55949 28.7709C7.72549 28.7024 7.75999 28.6804 7.75999 28.6804C7.79352 28.6604 7.82241 28.6334 7.84475 28.6013C7.8671 28.5692 7.88239 28.5328 7.88962 28.4944C7.89685 28.456 7.89585 28.4165 7.88669 28.3785C7.87753 28.3405 7.86042 28.3048 7.83649 28.2739L6.92299 27.0399C6.82349 26.9044 6.76099 26.9304 6.78599 27.0969L7.01299 28.6149ZM8.72699 26.8999L7.20999 26.6739C7.04249 26.6489 7.01749 26.7109 7.15249 26.8104L8.38599 27.7239C8.416 27.7479 8.45097 27.7647 8.48836 27.7734C8.52575 27.782 8.56459 27.7821 8.60204 27.7738C8.63949 27.7655 8.6746 27.7488 8.70478 27.7252C8.73497 27.7015 8.75947 27.6713 8.77649 27.6369L8.94249 27.2379C8.95446 27.2015 8.95818 27.1629 8.95339 27.1248C8.94861 27.0868 8.93543 27.0502 8.91481 27.0179C8.89419 26.9856 8.86664 26.9582 8.83416 26.9378C8.80168 26.9174 8.76508 26.9045 8.72699 26.8999ZM7.20999 26.3509L8.72699 26.1244C8.76582 26.1194 8.80313 26.1062 8.8365 26.0857C8.86986 26.0652 8.89851 26.0379 8.92056 26.0056C8.94261 25.9732 8.95757 25.9366 8.96446 25.898C8.97134 25.8595 8.96999 25.8199 8.96049 25.7819C8.96049 25.7819 8.95099 25.7419 8.88299 25.5774C8.81499 25.4119 8.79299 25.3774 8.79299 25.3774C8.7729 25.3439 8.74593 25.315 8.71386 25.2927C8.68179 25.2703 8.64535 25.255 8.60694 25.2478C8.56852 25.2406 8.52902 25.2416 8.49102 25.2507C8.45302 25.2599 8.41739 25.277 8.38649 25.3009L7.15199 26.2139C7.01749 26.3139 7.04249 26.3759 7.20999 26.3509ZM6.92349 25.9844L7.83699 24.7514C7.86099 24.7214 7.87796 24.6864 7.88664 24.649C7.89533 24.6115 7.8955 24.5726 7.88715 24.5351C7.8788 24.4976 7.86215 24.4624 7.83841 24.4322C7.81467 24.402 7.78446 24.3774 7.74999 24.3604L7.35099 24.1944C7.31451 24.1827 7.27588 24.1791 7.23786 24.184C7.19984 24.1889 7.16338 24.2021 7.13108 24.2228C7.09878 24.2434 7.07144 24.2709 7.05103 24.3034C7.03061 24.3358 7.01762 24.3724 7.01299 24.4104L6.78699 25.9274C6.76099 26.0944 6.82349 26.1199 6.92349 25.9844ZM25.0765 25.9844C25.176 26.1199 25.2375 26.0944 25.2125 25.9274L24.9865 24.4094C24.9813 24.3707 24.968 24.3335 24.9475 24.3002C24.927 24.267 24.8996 24.2384 24.8673 24.2164C24.835 24.1944 24.7984 24.1795 24.7599 24.1726C24.7214 24.1657 24.6819 24.167 24.644 24.1764C24.644 24.1764 24.6045 24.1859 24.439 24.2534C24.3709 24.2799 24.3043 24.3102 24.2395 24.3439C24.206 24.364 24.1771 24.391 24.1547 24.4231C24.1324 24.4551 24.1171 24.4916 24.1099 24.53C24.1026 24.5684 24.1036 24.6079 24.1128 24.6459C24.1219 24.6839 24.1391 24.7195 24.163 24.7504L25.0765 25.9844ZM23.273 26.1244L24.79 26.3504C24.9575 26.3759 24.9825 26.3139 24.8475 26.2139L23.614 25.3009C23.5839 25.277 23.5488 25.2601 23.5114 25.2515C23.4739 25.2429 23.435 25.2427 23.3975 25.2511C23.36 25.2594 23.3248 25.276 23.2945 25.2997C23.2642 25.3234 23.2396 25.3535 23.2225 25.3879L23.0565 25.7869C23.0448 25.8234 23.0413 25.862 23.0463 25.9C23.0512 25.938 23.0646 25.9744 23.0852 26.0067C23.1059 26.0389 23.1335 26.0662 23.1659 26.0866C23.1984 26.1069 23.235 26.1199 23.273 26.1244ZM23.116 27.4469C23.185 27.6129 23.207 27.6474 23.207 27.6474C23.2271 27.681 23.254 27.7099 23.2861 27.7322C23.3182 27.7546 23.3546 27.7698 23.393 27.7771C23.4315 27.7843 23.471 27.7833 23.509 27.7741C23.547 27.765 23.5826 27.7479 23.6135 27.7239L24.848 26.8104C24.983 26.7109 24.957 26.6489 24.7905 26.6739L23.272 26.8999C23.2333 26.9053 23.1961 26.9188 23.1629 26.9394C23.1297 26.96 23.1012 26.9874 23.0792 27.0197C23.0572 27.052 23.0422 27.0886 23.0352 27.127C23.0282 27.1655 23.0293 27.205 23.0385 27.2429C23.0385 27.2429 23.048 27.2824 23.116 27.4469ZM25.0765 27.0399L24.163 28.2734C24.139 28.3035 24.122 28.3385 24.1133 28.3759C24.1047 28.4134 24.1045 28.4523 24.1128 28.4898C24.1212 28.5273 24.1378 28.5625 24.1616 28.5927C24.1853 28.6229 24.2155 28.6474 24.25 28.6644L24.649 28.8299C24.811 28.8774 24.962 28.7799 24.987 28.6144L25.213 27.0969C25.238 26.9299 25.1765 26.9044 25.0765 27.0399ZM25.763 28.6149C25.788 28.7809 25.9415 28.8864 26.1055 28.8479C26.1055 28.8479 26.145 28.8384 26.3095 28.7709C26.4755 28.7024 26.51 28.6804 26.51 28.6804C26.5435 28.6604 26.5724 28.6334 26.5948 28.6013C26.6171 28.5692 26.6324 28.5328 26.6396 28.4944C26.6469 28.456 26.6459 28.4165 26.6367 28.3785C26.6275 28.3405 26.6104 28.3048 26.5865 28.2739L25.673 27.0399C25.5735 26.9044 25.511 26.9304 25.536 27.0969L25.763 28.6149ZM27.477 26.8999L25.96 26.6739C25.7925 26.6489 25.7675 26.7109 25.9025 26.8104L27.136 27.7239C27.166 27.7479 27.201 27.7647 27.2384 27.7734C27.2757 27.782 27.3146 27.7821 27.352 27.7738C27.3895 27.7655 27.4246 27.7488 27.4548 27.7252C27.485 27.7015 27.5095 27.6713 27.5265 27.6369L27.6925 27.2379C27.7045 27.2015 27.7082 27.1629 27.7034 27.1248C27.6986 27.0868 27.6854 27.0502 27.6648 27.0179C27.6442 26.9856 27.6166 26.9582 27.5842 26.9378C27.5517 26.9174 27.5151 26.9045 27.477 26.8999ZM25.96 26.3509L27.477 26.1244C27.5158 26.1194 27.5531 26.1062 27.5865 26.0857C27.6199 26.0652 27.6485 26.0379 27.6706 26.0056C27.6926 25.9732 27.7076 25.9366 27.7145 25.898C27.7213 25.8595 27.72 25.8199 27.7105 25.7819C27.7105 25.7819 27.701 25.7419 27.633 25.5774C27.565 25.4119 27.543 25.3774 27.543 25.3774C27.5229 25.3439 27.4959 25.315 27.4639 25.2927C27.4318 25.2703 27.3954 25.255 27.3569 25.2478C27.3185 25.2406 27.279 25.2416 27.241 25.2507C27.203 25.2599 27.1674 25.277 27.1365 25.3009L25.902 26.2139C25.7675 26.3139 25.7925 26.3759 25.96 26.3509ZM25.6735 25.9844L26.587 24.7514C26.611 24.7214 26.628 24.6864 26.6366 24.649C26.6453 24.6115 26.6455 24.5726 26.6372 24.5351C26.6288 24.4976 26.6122 24.4624 26.5884 24.4322C26.5647 24.402 26.5345 24.3774 26.5 24.3604L26.101 24.1944C26.0645 24.1827 26.0259 24.1791 25.9879 24.184C25.9498 24.1889 25.9134 24.2021 25.8811 24.2228C25.8488 24.2434 25.8214 24.2709 25.801 24.3034C25.7806 24.3358 25.7676 24.3724 25.763 24.4104L25.537 25.9274C25.511 26.0944 25.5735 26.1199 25.6735 25.9844ZM26.9915 14.7939C26.9915 14.7939 31 10.5749 31 8.46595C31 7.30145 30.006 6.35645 28.779 6.35645C27.8955 6.35645 27.1385 6.85045 26.7815 7.56145C26.4245 6.85045 25.667 6.35645 24.783 6.35645C23.557 6.35645 22.563 7.30145 22.563 8.46595C22.5625 10.5749 26.9915 14.7939 26.9915 14.7939ZM5.42899 14.7939C5.42899 14.7939 9.43749 10.5749 9.43749 8.46595C9.43749 7.30145 8.44349 6.35645 7.21649 6.35645C6.33299 6.35645 5.57599 6.85045 5.21899 7.56145C4.86199 6.85045 4.10449 6.35645 3.22049 6.35645C1.99449 6.35645 1.00049 7.30145 1.00049 8.46595C0.999988 10.5749 5.42899 14.7939 5.42899 14.7939Z" fill="white"/>
</svg>
