<svg width="32" height="33" viewBox="0 0 32 33" fill="none" xmlns="http://www.w3.org/2000/svg">
<g clip-path="url(#clip0_38_131)">
<path d="M26.975 12.2C26.7042 12.2 26.4698 12.101 26.2719 11.9031C26.074 11.7052 25.975 11.4708 25.975 11.2C25.975 10.7833 25.8969 10.3927 25.7406 10.0281C25.5844 9.66349 25.3709 9.34578 25.1 9.07495C24.8292 8.80412 24.5115 8.59058 24.1469 8.43433C23.7823 8.27808 23.3917 8.19995 22.975 8.19995C22.7042 8.19995 22.4698 8.10099 22.2719 7.90308C22.074 7.70516 21.975 7.47078 21.975 7.19995C21.975 6.92912 22.074 6.69474 22.2719 6.49683C22.4698 6.29891 22.7042 6.19995 22.975 6.19995C23.6625 6.19995 24.3084 6.33016 24.9125 6.59058C25.5167 6.85099 26.0479 7.20516 26.5063 7.65308C26.9646 8.10099 27.324 8.63224 27.5844 9.24683C27.8448 9.86141 27.975 10.5125 27.975 11.2C27.975 11.4708 27.8761 11.7052 27.6781 11.9031C27.4802 12.101 27.2459 12.2 26.975 12.2ZM8.97502 4.19995C9.66252 4.19995 10.3084 4.33016 10.9125 4.59058C11.5167 4.85099 12.0479 5.20516 12.5063 5.65308C12.9646 6.10099 13.324 6.63224 13.5844 7.24683C13.8448 7.86141 13.975 8.51245 13.975 9.19995C13.975 9.47078 13.8761 9.70516 13.6781 9.90308C13.4802 10.101 13.2459 10.2 12.975 10.2C12.7042 10.2 12.4698 10.101 12.2719 9.90308C12.074 9.70516 11.975 9.47078 11.975 9.19995C11.975 8.78328 11.8969 8.39266 11.7406 8.02808C11.5844 7.66349 11.3709 7.34578 11.1 7.07495C10.8292 6.80412 10.5115 6.59058 10.1469 6.43433C9.78231 6.27808 9.39169 6.19995 8.97502 6.19995C8.70419 6.19995 8.46981 6.10099 8.2719 5.90308C8.07398 5.70516 7.97502 5.47078 7.97502 5.19995C7.97502 4.92912 8.07398 4.69474 8.2719 4.49683C8.46981 4.29891 8.70419 4.19995 8.97502 4.19995ZM23.975 23.8406C23.975 24.0489 23.9698 24.2885 23.9594 24.5593C23.949 24.8302 23.9594 25.0854 23.9906 25.325C24.0219 25.5645 24.1209 25.7677 24.2875 25.9343C24.4542 26.101 24.6834 26.1895 24.975 26.2C25.6625 26.2 26.3084 26.3302 26.9125 26.5906C27.5167 26.851 28.0479 27.2052 28.5063 27.6531C28.9646 28.101 29.324 28.6322 29.5844 29.2468C29.8448 29.8614 29.975 30.5125 29.975 31.2C29.975 31.4708 29.8761 31.7052 29.6781 31.9031C29.4802 32.101 29.2459 32.2 28.975 32.2C28.7042 32.2 28.4698 32.101 28.2719 31.9031C28.074 31.7052 27.975 31.4708 27.975 31.2C27.975 30.7833 27.8969 30.3927 27.7406 30.0281C27.5844 29.6635 27.3709 29.3458 27.1 29.075C26.8292 28.8041 26.5115 28.5906 26.1469 28.4343C25.7823 28.2781 25.3917 28.2 24.975 28.2C24.5584 28.2 24.1677 28.1218 23.8031 27.9656C23.4386 27.8093 23.1209 27.5958 22.85 27.325C22.5792 27.0541 22.3656 26.7364 22.2094 26.3718C22.0531 26.0072 21.975 25.6166 21.975 25.2V23.8406C20.5271 23.1531 19.2406 22.252 18.1156 21.1375C16.9906 20.0229 16.0844 18.7416 15.3969 17.2937C14.7094 18.2729 13.9073 19.1479 12.9906 19.9187C12.074 20.6895 11.0688 21.3302 9.97502 21.8406V23.2C9.97502 23.6166 10.0531 24.0072 10.2094 24.3718C10.3656 24.7364 10.5792 25.0541 10.85 25.325C11.1209 25.5958 11.4386 25.8093 11.8031 25.9656C12.1677 26.1218 12.5584 26.2 12.975 26.2H14.5375C15.0271 26.2 15.4959 26.2312 15.9438 26.2937C16.3917 26.3562 16.824 26.502 17.2406 26.7312C17.6573 26.9604 18.0792 27.2729 18.5063 27.6687C18.9854 28.1479 19.35 28.6843 19.6 29.2781C19.85 29.8718 19.975 30.5125 19.975 31.2C19.975 31.4708 19.8761 31.7052 19.6781 31.9031C19.4802 32.101 19.2459 32.2 18.975 32.2C18.7042 32.2 18.4698 32.101 18.2719 31.9031C18.074 31.7052 17.975 31.4708 17.975 31.2C17.975 30.7833 17.8969 30.3927 17.7406 30.0281C17.5844 29.6635 17.3709 29.3458 17.1 29.075C16.8292 28.8041 16.5115 28.5906 16.1469 28.4343C15.7823 28.2781 15.3917 28.2 14.975 28.2H12.975C12.2875 28.2 11.6417 28.0697 11.0375 27.8093C10.4334 27.5489 9.9021 27.1947 9.44377 26.7468C8.98544 26.2989 8.62606 25.7677 8.36565 25.1531C8.10523 24.5385 7.97502 23.8875 7.97502 23.2V21.8406C6.75627 21.2677 5.6521 20.5385 4.66252 19.6531C3.67294 18.7677 2.8344 17.7781 2.1469 16.6843C1.4594 15.5906 0.922937 14.4083 0.537521 13.1375C0.152104 11.8666 -0.0353961 10.5541 -0.0249794 9.19995C-0.0249794 7.96037 0.209396 6.7937 0.678146 5.69995C1.1469 4.6062 1.79273 3.65308 2.61565 2.84058C3.43856 2.02808 4.39169 1.38745 5.47502 0.918701C6.55835 0.449951 7.72502 0.210368 8.97502 0.199951C9.7771 0.199951 10.5584 0.304118 11.3188 0.512451C12.0792 0.720784 12.7979 1.01766 13.475 1.40308C14.1521 1.78849 14.7719 2.26245 15.3344 2.82495C15.8969 3.38745 16.3761 4.01766 16.7719 4.71558C17.6052 3.90308 18.5531 3.28328 19.6156 2.8562C20.6781 2.42912 21.7979 2.21037 22.975 2.19995C24.2146 2.19995 25.3813 2.43433 26.475 2.90308C27.5688 3.37183 28.5219 4.01766 29.3344 4.84058C30.1469 5.66349 30.7875 6.61662 31.2563 7.69995C31.725 8.78328 31.9646 9.94995 31.975 11.2C31.975 12.5541 31.7875 13.8614 31.4125 15.1218C31.0375 16.3822 30.5063 17.5645 29.8188 18.6687C29.1313 19.7729 28.2875 20.7677 27.2875 21.6531C26.2875 22.5385 25.1834 23.2677 23.975 23.8406ZM8.97502 20.1062C10.0479 19.6166 11.0115 18.9968 11.8656 18.2468C12.7198 17.4968 13.4542 16.6427 14.0688 15.6843C14.6834 14.726 15.1521 13.7052 15.475 12.6218C15.7979 11.5385 15.9646 10.3979 15.975 9.19995C15.975 8.2312 15.7927 7.32495 15.4281 6.4812C15.0636 5.63745 14.5636 4.89787 13.9281 4.26245C13.2927 3.62703 12.5531 3.12703 11.7094 2.76245C10.8656 2.39787 9.95419 2.21037 8.97502 2.19995C8.00627 2.19995 7.10002 2.38224 6.25627 2.74683C5.41252 3.11141 4.67294 3.61141 4.03752 4.24683C3.4021 4.88224 2.9021 5.62183 2.53752 6.46558C2.17294 7.30933 1.98544 8.22078 1.97502 9.19995C1.97502 10.377 2.13648 11.5125 2.4594 12.6062C2.78231 13.7 3.25106 14.726 3.86565 15.6843C4.48023 16.6427 5.2146 17.4916 6.06877 18.2312C6.92294 18.9708 7.89169 19.5958 8.97502 20.1062ZM16.6625 15.1218C16.9229 15.8927 17.2615 16.627 17.6781 17.325C18.0948 18.0229 18.5688 18.6687 19.1 19.2625C19.6313 19.8562 20.225 20.3927 20.8813 20.8718C21.5375 21.351 22.2354 21.7625 22.975 22.1062C24.0479 21.6166 25.0115 20.9968 25.8656 20.2468C26.7198 19.4968 27.4542 18.6427 28.0688 17.6843C28.6834 16.726 29.1521 15.7052 29.475 14.6218C29.7979 13.5385 29.9646 12.3979 29.975 11.2C29.975 10.2312 29.7927 9.32495 29.4281 8.4812C29.0636 7.63745 28.5636 6.89787 27.9281 6.26245C27.2927 5.62703 26.5531 5.12703 25.7094 4.76245C24.8656 4.39787 23.9542 4.21037 22.975 4.19995C21.9334 4.19995 20.949 4.4187 20.0219 4.8562C19.0948 5.2937 18.2979 5.9187 17.6313 6.7312C17.7459 7.12703 17.8292 7.53328 17.8813 7.94995C17.9334 8.36662 17.9646 8.78328 17.975 9.19995C17.975 10.2312 17.8656 11.2416 17.6469 12.2312C17.4281 13.2208 17.1 14.1843 16.6625 15.1218Z" fill="white"/>
</g>
<defs>
<clipPath id="clip0_38_131">
<rect width="32" height="32" fill="white" transform="translate(0 0.199951)"/>
</clipPath>
</defs>
</svg>
