<svg width="21" height="16" viewBox="0 0 21 16" fill="none" xmlns="http://www.w3.org/2000/svg">
<path d="M8.5 1V2H12.5V1C12.5 0.447812 12.9469 0 13.5 0C14.0531 0 14.5 0.447812 14.5 1V2H16C16.8281 2 17.5 2.67156 17.5 3.5V5H3.5V3.5C3.5 2.67156 4.17156 2 5 2H6.5V1C6.5 0.447812 6.94688 0 7.5 0C8.05312 0 8.5 0.447812 8.5 1ZM3.5 6H17.5V14.5C17.5 15.3281 16.8281 16 16 16H5C4.17156 16 3.5 15.3281 3.5 14.5V6ZM5.5 9.5C5.5 9.775 5.72375 10 6 10H7C7.275 10 7.5 9.775 7.5 9.5V8.5C7.5 8.225 7.275 8 7 8H6C5.72375 8 5.5 8.225 5.5 8.5V9.5ZM9.5 9.5C9.5 9.775 9.725 10 10 10H11C11.275 10 11.5 9.775 11.5 9.5V8.5C11.5 8.225 11.275 8 11 8H10C9.725 8 9.5 8.225 9.5 8.5V9.5ZM14 8C13.725 8 13.5 8.225 13.5 8.5V9.5C13.5 9.775 13.725 10 14 10H15C15.275 10 15.5 9.775 15.5 9.5V8.5C15.5 8.225 15.275 8 15 8H14ZM5.5 13.5C5.5 13.775 5.72375 14 6 14H7C7.275 14 7.5 13.775 7.5 13.5V12.5C7.5 12.225 7.275 12 7 12H6C5.72375 12 5.5 12.225 5.5 12.5V13.5ZM10 12C9.725 12 9.5 12.225 9.5 12.5V13.5C9.5 13.775 9.725 14 10 14H11C11.275 14 11.5 13.775 11.5 13.5V12.5C11.5 12.225 11.275 12 11 12H10ZM13.5 13.5C13.5 13.775 13.725 14 14 14H15C15.275 14 15.5 13.775 15.5 13.5V12.5C15.5 12.225 15.275 12 15 12H14C13.725 12 13.5 12.225 13.5 12.5V13.5Z" fill="white"/>
</svg>
