<svg width="20" height="16" viewBox="0 0 20 16" fill="none" xmlns="http://www.w3.org/2000/svg">
<path d="M8 1V2H12V1C12 0.447812 12.4469 0 13 0C13.5531 0 14 0.447812 14 1V2H15.5C16.3281 2 17 2.67156 17 3.5V5H3V3.5C3 2.67156 3.67156 2 4.5 2H6V1C6 0.447812 6.44688 0 7 0C7.55312 0 8 0.447812 8 1ZM3 6H17V14.5C17 15.3281 16.3281 16 15.5 16H4.5C3.67156 16 3 15.3281 3 14.5V6ZM13.2531 9.50313C13.5719 9.2375 13.5719 8.7625 13.2531 8.46875C12.9875 8.17813 12.5125 8.17813 12.2188 8.46875L9.25 11.4406L7.75313 9.96875C7.4875 9.67813 7.0125 9.67813 6.71875 9.96875C6.42812 10.2625 6.42812 10.7375 6.71875 11.0031L8.71875 13.0031C9.0125 13.3219 9.4875 13.3219 9.75313 13.0031L13.2531 9.50313Z" fill="white"/>
</svg>
