<svg width="33" height="32" viewBox="0 0 33 32" fill="none" xmlns="http://www.w3.org/2000/svg">
<path d="M16.6672 3.19995C9.60927 3.19995 3.86719 8.94203 3.86719 16C3.86719 23.0579 9.60927 28.7999 16.6672 28.7999C23.7251 28.7999 29.4672 23.0579 29.4672 16C29.4672 8.94203 23.7251 3.19995 16.6672 3.19995ZM6.42719 16C6.42719 13.6371 7.23871 11.4662 8.58783 9.73179L22.9353 24.0793C21.1458 25.4791 18.9392 26.2397 16.6672 26.24C11.0211 26.24 6.42719 21.646 6.42719 16ZM24.7465 22.2681L10.399 7.92059C12.1886 6.52082 14.3952 5.76022 16.6672 5.75995C22.3133 5.75995 26.9072 10.3539 26.9072 16C26.9069 18.272 26.1463 20.4785 24.7465 22.2681Z" fill="#B3912E"/>
</svg>
