<svg width="33" height="32" viewBox="0 0 33 32" fill="none" xmlns="http://www.w3.org/2000/svg">
<path d="M19.1786 20.2666L16.3342 16V8.88884M3.53418 16C3.53418 17.6809 3.86526 19.3453 4.50852 20.8983C5.15178 22.4513 6.09462 23.8623 7.28321 25.0509C8.4718 26.2395 9.88286 27.1824 11.4358 27.8256C12.9888 28.4689 14.6533 28.8 16.3342 28.8C18.0151 28.8 19.6796 28.4689 21.2325 27.8256C22.7855 27.1824 24.1966 26.2395 25.3851 25.0509C26.5737 23.8623 27.5166 22.4513 28.1598 20.8983C28.8031 19.3453 29.1342 17.6809 29.1342 16C29.1342 14.319 28.8031 12.6546 28.1598 11.1016C27.5166 9.54864 26.5737 8.13757 25.3851 6.94898C24.1966 5.76039 22.7855 4.81755 21.2325 4.17429C19.6796 3.53103 18.0151 3.19995 16.3342 3.19995C14.6533 3.19995 12.9888 3.53103 11.4358 4.17429C9.88286 4.81755 8.4718 5.76039 7.28321 6.94898C6.09462 8.13757 5.15178 9.54864 4.50852 11.1016C3.86526 12.6546 3.53418 14.319 3.53418 16Z" stroke="#B3912E" stroke-width="3.2" stroke-linecap="round" stroke-linejoin="round"/>
</svg>
